<svg width="81" height="45" viewBox="0 0 81 45" fill="none" xmlns="http://www.w3.org/2000/svg">
<path d="M36.7731 30.497C36.8179 30.5033 36.8276 30.5051 36.8713 30.5109C37.6008 30.6123 38.3176 30.7467 38.8663 30.9975C39.3748 31.2271 39.6729 31.5176 39.9451 32.0355C40.3589 32.8208 40.3859 33.921 40.0119 34.7537C39.7325 35.3733 39.1193 35.8928 38.5594 36.1682C37.978 36.4564 37.4052 36.5936 36.7482 36.6703C35.5991 36.7997 34.3581 36.5563 33.3241 36.0449C32.7124 35.7395 31.9655 35.2135 31.5886 34.5358C31.3115 34.0394 31.3204 33.3935 31.6575 32.9217C32.1948 32.1696 33.3458 32.0041 34.2126 32.0355C34.8735 32.0616 36.0635 32.2705 36.691 32.4988C36.8649 32.563 37.5063 32.8185 37.6183 32.9357C37.6971 33.0172 37.7482 33.1357 37.7128 33.2452C37.5694 33.6936 36.5038 33.9299 36.1961 33.9774C35.3723 34.1064 34.9449 33.7876 34.0084 33.4096C33.7759 33.3165 33.4661 33.2132 33.2294 33.1908C32.8042 33.1494 32.2907 33.2712 32.2095 33.7457C32.1692 33.9903 32.4497 34.2191 32.6636 34.3152C33.166 34.5358 33.5744 34.6152 34.0688 34.622C35.5294 34.6466 37.1708 34.4007 38.3655 33.5352C38.529 33.4159 38.6897 33.2412 38.6914 33.021C38.6966 32.5763 37.9341 32.3044 37.9341 32.3044C37.1294 31.9613 35.6424 31.7944 34.8764 31.7299C34.0726 31.6587 32.8078 31.5523 32.5041 31.5066C32.1914 31.4609 31.8518 31.3964 31.581 31.2724C31.309 31.1467 31.0429 30.8655 30.964 30.5545C30.8239 29.9937 31.0026 29.3056 31.3072 28.8576C32.1054 27.6842 33.9753 27.2385 35.3722 27.0616C36.7243 26.8895 38.9101 26.8913 40.2381 27.6128C40.4431 27.7252 40.5478 27.8297 40.505 28.0538C40.4185 28.4746 40.1092 28.7457 39.7343 28.8646C39.3411 28.9925 38.5276 29.0424 38.1703 29.0654C36.5693 29.1572 34.6345 29.1091 33.1095 29.5343C32.99 29.5691 32.7836 29.626 32.7166 29.7026C32.4779 29.9676 33.1596 30.0433 33.3057 30.0736C33.3491 30.0842 33.3575 30.0857 33.4028 30.0907L36.7731 30.497ZM27.2484 23.1974C27.2484 23.1974 27.5088 22.798 27.7271 22.495C28.1244 21.9433 28.8434 21.1781 29.3849 20.7044C29.5505 20.5597 29.7458 20.3958 29.7458 20.3958C29.7458 20.3958 29.4404 20.4281 29.2673 20.4643C28.8564 20.546 28.254 20.9554 27.953 21.2199C27.4563 21.6546 26.9102 22.3614 27.1573 22.9893C27.1932 23.078 27.2484 23.1974 27.2484 23.1974ZM30.0096 23.9529C30.7942 23.8975 31.5292 23.6665 32.2135 23.2784C32.8846 22.8945 33.8716 22.1458 33.7692 21.2656C33.7381 20.9807 33.5557 20.7656 33.3254 20.6653C33.0262 20.5327 32.8701 20.554 32.4877 20.6702C32.21 20.7533 32.0849 20.8037 31.8226 20.9572C31.0528 21.4145 29.9614 22.3931 29.3689 23.1741C29.2322 23.3583 29.0937 23.5643 28.9853 23.7055C28.9169 23.7925 28.8638 23.8724 28.8704 23.8937C28.8941 23.9823 29.7031 23.9741 30.0096 23.9529ZM28.0118 25.4532C27.9308 25.5408 27.8452 25.7518 27.7565 25.9046C27.709 25.9864 27.6211 26.0916 27.5629 26.1339C27.3587 26.2874 27.1857 26.2945 26.9886 26.1171C26.7121 25.8671 26.5522 25.4804 26.5409 25.1042C26.535 24.9401 26.5625 24.7585 26.5321 24.6201C26.4818 24.3864 26.2532 24.1457 26.1299 23.9224C25.9851 23.6593 25.868 23.2004 25.8534 22.9042C25.8038 21.9805 26.28 21.1296 26.8986 20.4585C27.5216 19.7798 28.3366 19.2158 29.223 18.8318C30.0608 18.471 31.2886 18.225 32.2087 18.5508C32.5082 18.6558 32.9255 18.9164 33.1353 19.1895C33.1798 19.2461 33.2161 19.3074 33.2618 19.3374C33.3027 19.3641 33.4097 19.3746 33.4948 19.3906C33.7883 19.4426 34.2108 19.6697 34.3834 19.8211C34.7301 20.1269 34.9201 20.4193 35.008 20.8436C35.1842 21.6973 34.7034 22.6339 34.1558 23.204C33.218 24.1851 32.292 24.8749 31.0924 25.3551C30.5655 25.5655 29.7448 25.7622 29.1471 25.7072C28.9614 25.6914 28.7707 25.6414 28.5899 25.6292C28.4977 25.621 28.1604 25.5321 28.1244 25.507C28.0796 25.4719 28.0219 25.4413 28.0118 25.4532ZM29.0832 27.346C29.1197 27.3523 29.176 27.3691 29.2244 27.3881C29.645 27.5517 29.818 27.9496 29.9216 28.3868C30.1617 29.4018 30.2641 31.6475 30.3041 32.5264C30.3334 33.1862 30.3495 33.8353 30.3766 34.4874C30.3995 35.0397 30.4426 35.7739 30.33 36.2912C30.2891 36.4773 30.1673 36.6938 29.993 36.8046C29.7934 36.9353 29.3389 36.9452 29.0891 36.8925C28.4733 36.7623 28.2732 36.3575 28.1853 35.7349C27.9765 34.2491 28.0771 31.3332 28.2003 30.1028C28.2413 29.6964 28.391 28.3943 28.5985 27.8484C28.6694 27.6642 28.8203 27.2935 29.0832 27.346ZM10.3508 29.818C10.3508 29.818 9.43434 29.8844 8.80359 29.9559C8.00113 30.0443 6.49331 30.3105 5.62297 30.6283C5.36191 30.7238 4.8316 30.9508 4.78551 31.2252C4.73707 31.5097 4.90976 31.7322 5.10181 31.9623C5.21287 32.096 5.84143 32.7143 6.01768 32.8645C6.75648 33.4952 8.25458 34.4679 9.35796 34.9402C9.73704 35.1005 10.3641 35.3301 10.3641 35.3301C10.3641 35.3301 10.3176 33.5044 10.3259 31.706C10.3308 30.7573 10.3508 29.818 10.3508 29.818ZM27.1545 30.5446C27.207 31.0351 27.0837 31.9624 27.0624 32.0847C27.0233 32.3667 26.8154 33.017 26.7809 33.0963C26.6131 33.4916 26.4476 33.8154 26.2722 34.1384C25.9717 34.6914 25.2571 35.5681 24.8329 35.9432C23.2554 37.3374 20.8135 38.1311 18.7185 38.3926C17.2969 38.5682 15.6635 38.5424 14.1572 38.2574C13.6388 38.161 12.8674 37.9792 12.8674 37.9792C12.8674 37.9792 12.8699 38.2946 12.8452 38.5164C12.8332 38.6176 12.7587 38.884 12.7169 38.9703C12.6074 39.2016 12.4275 39.3209 12.1661 39.3723C11.8505 39.4322 11.5158 39.4521 11.2242 39.3247C10.7454 39.1187 10.5735 38.6607 10.4901 38.1324C10.4226 37.71 10.352 36.9756 10.352 36.9756C10.352 36.9756 9.99381 36.8022 9.69516 36.6498C8.77784 36.1876 7.9066 35.6277 7.14439 35.0518C6.93322 34.8907 6.02602 34.1138 5.82579 33.9209C5.2643 33.3759 4.75918 32.8336 4.37492 32.1378C4.07619 31.5943 3.99017 31.1118 4.21738 30.5359C4.53068 29.7331 5.65634 29.1287 6.42673 28.7842C6.99219 28.529 8.75046 27.9419 9.48084 27.8331C9.82581 27.7827 10.3609 27.6847 10.3938 27.6628C10.4072 27.6523 10.4165 27.6434 10.4263 27.632C10.4431 27.6078 10.4715 26.8131 10.466 26.5224C10.4589 26.2366 10.6729 24.3593 10.7417 23.9624C10.7776 23.7477 10.9366 22.9213 11.0989 22.7044C11.2051 22.5578 11.3928 22.5697 11.5459 22.6659C12.3836 23.1985 12.6381 25.0457 12.7004 25.9855C12.7377 26.5582 12.7562 27.4195 12.7562 27.4195C12.7562 27.4195 13.7172 27.3904 14.3084 27.4076C14.8828 27.4212 15.516 27.5139 16.1122 27.6111C16.8756 27.7362 18.3635 28.0681 19.2168 28.5104C19.9195 28.8747 20.5772 29.4884 20.7903 30.1379C20.9883 30.7333 20.9586 31.1453 20.657 31.6827C20.318 32.2894 19.6766 32.7404 19.0264 32.778C18.8328 32.7895 18.1045 32.6905 17.8804 32.5131C17.7925 32.4424 17.797 32.3147 17.8604 32.2282C17.8845 32.1978 18.2249 32.0127 18.4259 31.9047C18.5267 31.8487 18.61 31.7883 18.6887 31.715C18.8556 31.5647 19.0059 31.3992 18.9891 31.2053C18.966 30.9535 18.7054 30.7982 18.4571 30.6983C17.2918 30.225 14.9653 29.8321 13.841 29.7641C13.4009 29.7377 12.7749 29.7151 12.7749 29.7151L12.9073 36.063C12.9073 36.063 13.4248 36.1638 13.8326 36.2314C14.0666 36.2676 15.0582 36.3589 15.3217 36.3655C17.3279 36.4197 19.567 36.236 21.4082 35.3477C22.2165 34.9587 22.958 34.4745 23.5194 33.8189C24.2594 32.9516 24.6469 31.7645 24.5443 30.5246C24.4319 29.1704 23.4998 27.563 22.7555 26.5842C20.7889 23.9982 17.4179 21.8711 14.4522 20.6239C11.4244 19.3515 8.43197 18.6196 5.21862 18.497C4.39023 18.4656 2.58401 18.5083 1.67098 18.7666C1.54057 18.8042 1.40911 18.8491 1.28801 18.8769C1.19235 18.9008 1.04161 18.9656 1.00022 18.9998C0.977296 19.0188 0.954616 19.045 0.954616 19.045C0.954616 19.045 1.01091 19.0768 1.06469 19.1001C1.16141 19.1433 1.56851 19.1691 1.7792 19.2085C1.96768 19.2448 2.16395 19.346 2.24162 19.4872C2.31542 19.6215 2.32465 19.7273 2.23644 19.8393C2.02957 20.0965 1.25091 20.0531 0.908041 19.9976C0.551722 19.9396 0.108085 19.8281 0.0265988 19.5109C-0.0679282 19.1373 0.105655 18.7711 0.29317 18.4325C0.669901 17.7551 1.20952 17.4028 1.99976 17.1821C3.12218 16.8663 4.53943 16.6455 5.59932 16.6041C7.99821 16.5114 10.2686 16.9404 12.5929 17.6619C13.9232 18.0732 15.6648 18.7634 16.9398 19.3911C17.8547 19.8421 19.2962 20.6716 20.1059 21.2136C20.3613 21.386 21.8558 22.5088 22.088 22.7061C22.5723 23.111 23.2057 23.6929 23.6644 24.1583C24.5519 25.0574 25.6556 26.4358 26.1919 27.5297C26.3209 27.7917 26.4208 28.0494 26.5873 28.3531C26.6446 28.4571 26.8895 29.0792 26.9303 29.259C26.9706 29.4368 27.0297 29.6982 27.0381 29.7085C27.0499 29.804 27.1635 30.3385 27.1545 30.5446ZM57.3127 29.141C56.1893 29.4059 53.2352 29.553 53.2352 29.553L52.8626 30.7461C52.8626 30.7461 54.3389 30.6172 55.4129 30.7319C55.4129 30.7319 55.7609 30.6906 55.8018 31.1359C55.8157 31.5511 55.7673 31.9967 55.7673 31.9967C55.7673 31.9967 55.745 32.2663 55.3714 32.3349C54.9665 32.4039 52.1894 32.5137 52.1894 32.5137L51.7397 34.0689C51.7397 34.0689 51.5726 34.4284 51.9471 34.3258C52.2951 34.2306 55.2049 33.6723 55.5839 33.7526C55.9901 33.8557 56.4395 34.4094 56.3096 34.9139C56.1547 35.5393 53.2505 37.4332 51.4818 37.301C51.4818 37.301 50.5524 37.3623 49.7669 36.0798C49.0353 34.8577 50.0442 32.5437 50.0442 32.5437C50.0442 32.5437 49.5817 31.4634 49.9168 31.0973C49.9168 31.0973 50.1163 30.9122 50.6976 30.8704L51.4094 29.3646C51.4094 29.3646 50.5986 29.4217 50.1163 28.8118C49.667 28.2332 49.6293 27.9673 49.9738 27.8075C50.3422 27.6215 53.7187 26.9914 56.0422 27.0713C56.0422 27.0713 56.8497 26.9902 57.55 28.4224C57.5502 28.4225 57.8894 29.0016 57.3127 29.141ZM48.5735 34.9307C48.2758 35.6469 47.4892 36.4112 46.512 35.9361C45.5474 35.4601 44.0109 32.2446 44.0109 32.2446C44.0109 32.2446 43.4276 31.0456 43.3154 31.0765C43.3154 31.0765 43.1894 30.8423 43.1121 32.1526C43.0318 33.4573 43.1276 36.0013 42.6186 36.4017C42.1364 36.8032 41.5525 36.6434 41.2498 36.1743C40.9745 35.7122 40.86 34.614 41.0102 32.6854C41.1867 30.753 41.6257 28.697 42.1866 28.0568C42.7467 27.4209 43.1964 27.8826 43.3717 28.05C43.3717 28.05 44.121 28.7444 45.3565 30.7834L45.5746 31.1605C45.5746 31.1605 46.6974 33.0869 46.8147 33.0824C46.8147 33.0824 46.9065 33.171 46.9883 33.1073C47.1061 33.0729 47.0586 32.4552 47.0586 32.4552C47.0586 32.4552 46.8256 30.3559 45.8013 26.8025C45.8013 26.8025 45.6464 26.3594 45.7512 25.9442C45.8552 25.5246 46.2665 25.7216 46.2665 25.7216C46.2665 25.7216 47.8541 26.5378 48.6247 29.1807C49.3903 31.8244 48.8758 34.2092 48.5735 34.9307ZM65.6601 33.3479C64.9374 34.6371 62.8972 37.3368 60.1858 36.6994C59.2904 38.9195 58.5382 41.1654 58.1081 44.5259C58.1081 44.5259 58.0136 45.179 57.4828 44.9521C56.9568 44.7639 56.0903 43.8696 55.915 42.6325C55.7265 41.0075 56.434 38.2604 57.8801 35.1105C57.4583 34.4094 57.1708 33.4077 57.4169 31.9815C57.4169 31.9815 57.7802 29.3329 60.3816 26.9458C60.3816 26.9458 60.6935 26.6704 60.8743 26.7552C61.0735 26.8406 60.9812 27.7024 60.8232 28.1215C60.659 28.5382 59.5008 30.5883 59.5008 30.5883C59.5008 30.5883 58.7784 31.9733 58.9817 33.0657C60.3461 30.9209 63.4476 26.5958 65.3699 27.9597C66.0157 28.4321 66.3133 29.4596 66.3133 30.5669C66.3137 31.5395 66.0844 32.5731 65.6601 33.3479ZM65.0991 29.951C65.0991 29.951 64.9921 29.0983 64.1767 30.0377C63.4754 30.8305 62.2105 32.3158 61.1923 34.3333C62.2607 34.2106 63.2911 33.6179 63.6028 33.3161C64.1093 32.8565 65.2894 31.6096 65.0991 29.951ZM80.5966 29.7569H75.6274C75.5283 28.03 75.3244 26.3478 75.0039 24.6153C74.971 24.436 74.8184 24.306 74.6408 24.306H73.4952C73.3955 24.306 73.3011 24.3518 73.2365 24.4317C73.1717 24.513 73.1463 24.6163 73.1654 24.7175C73.4909 26.394 73.6971 28.0441 73.7988 29.7585H69.0181C68.7953 29.7585 68.6144 29.943 68.6144 30.1698V31.2263C68.6144 31.4537 68.7953 31.6394 69.0181 31.6394H73.8672C73.8703 31.9001 73.8728 32.1336 73.8728 32.3527C73.8728 33.8753 73.8086 35.1295 73.6585 36.5449C73.6467 36.6543 73.6817 36.7632 73.7542 36.8435C73.8245 36.9244 73.9258 36.9705 74.0309 36.9705H75.0934C75.3009 36.9705 75.4726 36.811 75.4934 36.5999C75.6385 35.1749 75.7007 33.9051 75.7007 32.3526C75.7007 32.1344 75.6985 31.9001 75.6953 31.6393H80.5966C80.8188 31.6393 81.0002 31.4536 81.0002 31.2262V30.1698C81.0001 29.9419 80.8187 29.7569 80.5966 29.7569Z" fill="#101C50"/>
<path d="M14.1519 15.6C14.0815 15.707 14.0645 15.8383 14.1049 15.9616C14.1471 16.0847 14.2389 16.1782 14.3574 16.2207L15.2482 16.5273C15.3021 16.5445 15.3556 16.5535 15.4081 16.5535C15.5732 16.5535 15.7281 16.4699 15.8199 16.3296C18.7377 11.9468 22.6866 8.29762 27.2404 5.77654C31.9417 3.17347 37.2681 1.79656 42.6456 1.79656C49.1409 1.79656 55.4078 3.75562 60.7695 7.46154C66.001 11.0764 70.064 16.1197 72.5192 22.0465C72.5926 22.2239 72.762 22.3382 72.9498 22.3382H74.0136C74.1361 22.3382 74.2514 22.2751 74.3208 22.1704C74.3904 22.0658 74.4035 21.9331 74.3572 21.8156C71.8255 15.443 67.5443 10.0107 61.9748 6.10791C56.2734 2.11236 49.5894 0 42.6456 0C31.1662 0 20.514 5.83195 14.1519 15.6Z" fill="url(#paint0_linear)"/>
<defs>
<linearGradient id="paint0_linear" x1="75.3709" y1="14.5243" x2="15.3024" y2="6.58129" gradientUnits="userSpaceOnUse">
<stop stop-color="#101C50"/>
<stop offset="0.236" stop-color="#0D267A"/>
<stop offset="0.4973" stop-color="#085AA4"/>
<stop offset="0.6549" stop-color="#058BBF"/>
<stop offset="1" stop-color="#B1FFFF"/>
</linearGradient>
</defs>
</svg>
