<svg width="132" height="34" viewBox="0 0 132 34" fill="none" xmlns="http://www.w3.org/2000/svg">
<g clip-path="url(#clip0)">
<path d="M69.3622 1.2699H132V0.0057373H69.3622V1.2699Z" fill="white"/>
<path d="M69.3622 33.9869H132V32.7228H69.3622V33.9869Z" fill="white"/>
<path d="M78.06 21.4145V25.04C78.06 28.1321 76.7302 29.6608 74.0406 29.6608H73.3606C70.7011 29.6608 69.4025 28.1321 69.4025 25.1104V21.6454H71.8139V25.2178C71.8139 26.4971 72.3402 27.101 73.453 27.101H73.9472C75.061 27.101 75.5863 26.4971 75.5863 25.2178V21.4849C75.5863 20.2414 75.2156 19.708 74.5036 19.1041L71.4744 16.5801C69.8665 15.265 69.4025 13.9856 69.4025 11.9593V8.97454C69.4025 5.88245 70.7322 4.35375 73.4219 4.35375H74.0406C76.6991 4.35375 77.9978 5.88245 77.9978 8.90299V11.0356H75.5863V8.79674C75.5863 7.51632 75.061 6.91243 73.9472 6.91243H73.5143C72.4015 6.91243 71.8762 7.51632 71.8762 8.79674V11.9246C71.8762 13.1682 72.2779 13.7016 72.989 14.3055L75.989 16.7937C77.5649 18.1088 78.06 19.2819 78.06 21.4145Z" fill="white"/>
<path d="M81.856 29.4473V7.19662H78.6099V4.5664H87.5758V7.19662H84.3297V29.4473H81.856Z" fill="white"/>
<path d="M97.3312 25.0397C97.3312 28.1318 96.0015 29.6605 93.3118 29.6605H92.5385C89.8488 29.6605 88.519 28.1318 88.519 25.0397V4.56601H90.9928V25.1818C90.9928 26.4622 91.5181 27.0661 92.6318 27.0661H93.2194C94.3322 27.0661 94.8575 26.4622 94.8575 25.1818V4.56601H97.3312V25.0397Z" fill="white"/>
<path d="M101.382 26.8524H102.867C104.536 26.8524 105.309 25.8929 105.309 23.9739V10.04C105.309 8.12095 104.536 7.16144 102.867 7.16144H101.382V26.8524ZM98.9084 4.56699H102.99C106.236 4.56699 107.782 6.34397 107.782 10.0757V23.9381C107.782 27.6699 106.236 29.4468 102.99 29.4468H98.9084V4.56699Z" fill="white"/>
<path d="M111.744 29.4475H109.271V4.56659H111.744V29.4475Z" fill="white"/>
<path d="M118.087 6.94784H117.345C116.232 6.94784 115.706 7.55281 115.706 8.83215V25.1816C115.706 26.4621 116.232 27.0659 117.345 27.0659H118.087C119.2 27.0659 119.725 26.4621 119.725 25.1816V8.83215C119.725 7.55281 119.2 6.94784 118.087 6.94784ZM118.179 29.6604H117.252C114.562 29.6604 113.233 28.1328 113.233 25.0396V8.97418C113.233 5.88209 114.562 4.35339 117.252 4.35339H118.179C120.87 4.35339 122.199 5.88209 122.199 8.97418V25.0396C122.199 28.1328 120.87 29.6604 118.179 29.6604" fill="white"/>
<path d="M131.947 21.4145V25.04C131.947 28.1321 130.617 29.6608 127.927 29.6608H127.247C124.588 29.6608 123.289 28.1321 123.289 25.1104V21.6454H125.701V25.2178C125.701 26.4971 126.227 27.101 127.34 27.101H127.834C128.948 27.101 129.473 26.4971 129.473 25.2178V21.4849C129.473 20.2414 129.102 19.708 128.39 19.1041L125.361 16.5801C123.753 15.265 123.289 13.9856 123.289 11.9593V8.97454C123.289 5.88245 124.619 4.35375 127.308 4.35375H127.927C130.586 4.35375 131.885 5.88245 131.885 8.90299V11.0356H129.473V8.79674C129.473 7.51632 128.948 6.91243 127.834 6.91243H127.401C126.288 6.91243 125.763 7.51632 125.763 8.79674V11.9246C125.763 13.1682 126.165 13.7016 126.876 14.3055L129.876 16.7937C131.451 18.1088 131.947 19.2819 131.947 21.4145Z" fill="white"/>
<path d="M0 34H65.6596V0H0V34Z" fill="#E50B14"/>
<path d="M55.6457 9.09638H52.1412V14.7168H55.6457V19.2595H52.1412V24.9645H55.6457V29.44H48.266V6.88899L45.1548 29.44L40.6025 29.4541C40.6025 29.4541 38.2806 13.4841 38.2769 13.4505V13.4516C38.6522 16.0319 37.2414 18.7272 35.9937 19.7908L38.457 29.44H38.4532H38.4466L38.4485 29.4454H38.4419H34.6252H34.6215L32.7428 21.2111L31.8375 21.3639V29.44H31.8309H31.8262V29.4454H31.8224L24.422 29.44L23.9674 25.6128H20.9326L20.4761 29.44H12.9399V17.4479L11.1867 29.44H9.1091L7.33045 17.4479V29.44H3.42041V4.56016H8.38482L10.1276 17.4142L11.9167 4.56016H16.8783V27.4408L19.8631 4.55691L25.0482 4.56016L27.935 26.6471L27.9501 4.56016C27.9501 4.56016 31.8894 4.55799 31.9129 4.56016C35.4806 4.56016 37.1008 7.56877 37.5582 8.60525L37.115 4.56016H41.0731L42.8593 19.7127L44.6663 4.56016H55.6457V9.09638Z" fill="white"/>
<path d="M31.8564 8.98792C31.8479 8.98792 31.8413 8.98792 31.8375 8.98792V16.9892C32.1431 16.9892 32.4552 16.9057 32.7561 16.7398C33.6681 16.2292 34.4442 14.9585 34.4442 12.9452C34.4442 9.092 32.1619 8.98467 31.8564 8.98792Z" fill="#E50B14"/>
<path d="M21.3927 21.6511H23.5797L22.4659 11.0131L21.3927 21.6511Z" fill="#E50B14"/>
<path d="M63.5206 29.4346H56.321V4.55587H60.1981V24.9602H63.5206V29.4346Z" fill="white"/>
</g>
<defs>
<clipPath id="clip0">
<rect width="132" height="34" fill="white"/>
</clipPath>
</defs>
</svg>
